<svg version="1.1" id="Layer_1" xmlns="http://www.w3.org/2000/svg" xmlns:xlink="http://www.w3.org/1999/xlink" x="0px" y="0px"
	 width="100%" viewBox="0 0 437 438" enable-background="new 0 0 437 438" xml:space="preserve">
<path fill="#64E2DD" opacity="1.000000" stroke="none" 
	d="
M190.000000,0.999996 
	C209.354233,1.000000 228.708450,1.000000 248.193207,1.331220 
	C248.992477,2.097016 249.612259,2.786077 250.337769,2.925734 
	C255.916367,3.999596 261.535980,4.864872 267.104828,5.984079 
	C297.814606,12.156006 325.434937,25.272720 350.329987,44.024879 
	C358.290039,50.020790 365.216095,57.389072 372.618805,64.125488 
	C376.028870,67.228569 379.925232,69.939896 382.769562,73.494278 
	C390.234711,82.822929 397.958984,92.073029 404.234589,102.189049 
	C410.668427,112.560104 415.506836,123.920906 421.054199,135.189941 
	C421.551910,136.188278 422.038971,136.845200 422.569794,137.534698 
	C422.613586,137.567276 422.594879,137.674835 422.473022,138.088928 
	C423.143829,142.635757 421.775482,147.611008 426.930511,150.264984 
	C427.000122,150.459854 427.030273,150.872604 427.020111,151.216644 
	C427.363159,152.369720 427.716370,153.178757 428.299866,154.150650 
	C428.615509,154.856140 428.700867,155.398773 428.608948,156.266251 
	C429.821503,161.090881 431.211365,165.590652 432.728943,170.384003 
	C432.839874,171.101822 432.823151,171.526047 432.620850,172.284882 
	C433.523438,177.108505 434.611511,181.597519 435.789795,186.392395 
	C435.847961,187.120163 435.815918,187.542084 435.589508,188.321777 
	C435.623810,200.023636 435.829865,211.368301 436.117188,222.710876 
	C436.145050,223.810394 436.675964,224.897156 436.972443,226.322601 
	C436.969879,227.098785 436.968231,227.542191 436.750946,228.330017 
	C436.381073,229.485565 436.202454,230.292938 436.076294,231.108414 
	C434.075317,244.043518 432.536591,257.072998 429.912262,269.880096 
	C428.368530,277.413666 425.320831,284.677673 422.557190,291.913025 
	C419.024902,301.160614 415.308624,310.352692 411.236359,319.372162 
	C409.586609,323.026001 405.613861,325.661499 406.669861,330.560608 
	C406.690582,330.679565 406.473175,330.784668 406.242493,330.712341 
	C405.678375,330.653320 405.385040,330.768555 404.876343,331.219269 
	C403.454773,334.016266 402.288574,336.579681 401.076965,339.095947 
	C401.031525,339.048767 401.147552,339.109558 400.792877,339.148865 
	C399.004639,341.512787 397.571075,343.837341 396.092957,346.123657 
	C396.048401,346.085388 396.161987,346.115356 395.783020,346.117065 
	C394.372192,347.849579 393.340302,349.580414 392.161804,351.178589 
	C392.015167,351.045898 392.320862,351.296265 391.969116,351.308044 
	C390.252899,353.361115 388.888397,355.402374 387.512390,357.467590 
	C387.500854,357.491547 387.454193,357.516998 387.104767,357.467041 
	C383.757385,359.375336 379.879120,360.631744 380.207123,365.197937 
	C380.141632,365.134857 380.265900,365.266663 380.018250,365.357544 
	C378.130035,366.190613 376.379517,366.817047 375.143158,367.986877 
	C371.926147,371.030670 369.081390,374.471924 365.827271,377.471680 
	C353.845001,388.517303 341.154907,398.598175 326.465393,405.938141 
	C325.458130,406.441437 325.093628,408.231262 324.339813,409.341003 
	C324.249420,409.259247 324.391510,409.457306 324.004639,409.400391 
	C322.177551,409.718781 320.597351,409.830536 319.318756,410.509949 
	C305.802155,417.691986 291.318756,422.140594 276.737457,426.600677 
	C258.448242,432.194946 239.614227,434.405304 220.860428,434.569183 
	C204.595825,434.711212 188.263596,431.413177 172.033844,429.121399 
	C165.547516,428.205505 159.248825,425.937531 152.877884,424.235718 
	C148.313889,423.016602 143.771805,421.715515 139.127945,420.477448 
	C139.035950,420.503876 138.942032,420.337036 138.757294,420.034088 
	C135.371414,418.062531 132.244125,416.227539 128.951050,414.766022 
	C124.496902,412.789154 119.915504,411.098999 115.242157,409.290344 
	C115.095612,409.294800 114.964096,409.032715 114.913513,408.688538 
	C110.450417,405.264740 106.140068,402.022217 101.586655,399.167389 
	C98.904991,397.486084 95.837639,396.419891 92.959351,395.041809 
	C92.974945,395.006531 92.925293,395.066803 92.792343,394.847687 
	C92.367905,394.460205 92.076424,394.291840 91.451172,394.056458 
	C56.356735,368.386627 31.336081,335.365356 15.891471,295.081848 
	C9.014241,277.144257 4.842806,258.560822 2.831819,239.465744 
	C2.704792,238.259567 1.632519,237.152939 0.999998,236.000000 
	C1.000000,234.285645 1.000000,232.571289 1.464912,230.419357 
	C2.008372,222.134018 2.107584,214.286285 2.114971,206.438461 
	C2.115422,205.959320 1.388491,205.479507 1.000001,205.000000 
	C1.000000,203.285645 1.000000,201.571289 1.321012,199.804382 
	C2.118819,198.082123 2.830756,196.441086 3.038485,194.738556 
	C11.036550,129.186966 41.839764,77.072929 95.760902,39.037979 
	C123.459877,19.499643 154.318710,7.246604 188.135300,2.923650 
	C188.827515,2.835160 189.381516,1.665342 190.000000,0.999996 
M61.861568,336.130768 
	C61.861568,336.130768 61.778778,336.130707 61.892433,336.731384 
	C62.182560,337.004547 62.472683,337.277710 62.850094,337.857635 
	C62.850094,337.857635 63.144550,337.980133 63.328835,338.597107 
	C64.568306,340.031067 65.807777,341.464996 67.037445,342.968750 
	C67.037445,342.968750 67.107643,342.962158 67.176575,343.466583 
	C67.447052,343.651001 67.717529,343.835419 68.152939,344.568604 
	C68.675461,345.097321 69.197983,345.626038 69.971939,346.781677 
	C71.963676,348.878143 73.955421,350.974579 75.996490,353.014374 
	C75.996490,353.014374 75.926285,353.041077 76.017159,353.589172 
	C76.325325,353.759735 76.633492,353.930328 77.228455,354.700043 
	C137.873840,418.407410 234.163422,434.141693 311.982574,393.060303 
	C403.830811,344.572815 442.654877,233.534882 401.007904,138.445328 
	C345.825958,12.452344 180.234756,-20.115885 82.341705,76.275871 
	C34.967068,122.923981 16.018335,180.190903 24.405071,246.110916 
	C27.869177,273.338928 37.162598,298.760132 52.195621,322.639801 
	C54.015312,325.194458 55.835003,327.749115 57.954922,330.030487 
	C57.954922,330.030487 57.668190,330.317719 57.752193,330.961060 
	C58.434261,331.772491 59.116329,332.583893 59.919601,333.904388 
	C60.258175,334.279938 60.596748,334.655487 61.015652,335.573975 
	C61.293217,335.786804 61.570778,335.999664 61.861568,336.130768 
z"/>
<path fill="#000202" opacity="1.000000" stroke="none" 
	d="
M138.942032,420.337036 
	C138.942032,420.337036 139.035950,420.503876 139.387054,420.733612 
	C150.482788,424.367737 161.227417,427.772125 172.047913,431.433289 
	C172.786346,431.681793 173.448929,431.673553 174.480423,431.675903 
	C175.564484,431.861786 176.279633,432.037048 177.252350,432.378693 
	C177.912979,432.574188 178.316055,432.603302 179.010529,432.565247 
	C179.866180,432.685150 180.430420,432.872223 181.289948,433.294952 
	C182.827103,433.642426 184.068970,433.754181 185.650635,433.834656 
	C186.659164,433.924347 187.327942,434.045319 188.279999,434.417908 
	C192.568954,435.053864 196.574631,435.438171 200.969208,435.726074 
	C203.228409,435.800720 205.098740,435.971771 207.254639,436.345398 
	C209.026825,437.365295 210.513428,438.182648 212.000000,439.000000 
	C141.741043,439.000000 71.482079,439.000000 1.000000,439.000000 
	C1.000000,371.645935 1.000000,304.291626 0.999998,236.468658 
	C1.632519,237.152939 2.704792,238.259567 2.831819,239.465744 
	C4.842806,258.560822 9.014241,277.144257 15.891471,295.081848 
	C31.336081,335.365356 56.356735,368.386627 91.546799,394.312622 
	C92.292572,394.779419 92.608932,394.923126 92.925293,395.066803 
	C92.925293,395.066803 92.974945,395.006531 93.124329,395.329529 
	C100.503845,400.112579 107.733978,404.572632 114.964104,409.032715 
	C114.964096,409.032715 115.095612,409.294800 115.458206,409.567688 
	C123.527885,413.339417 131.234955,416.838226 138.942032,420.337036 
z"/>
<path fill="#000101" opacity="1.000000" stroke="none" 
	d="
M438.000000,247.000000 
	C438.000000,310.926453 438.000000,374.852875 438.000000,439.000000 
	C375.312622,439.000000 312.624969,439.000000 249.599655,438.654205 
	C251.247040,437.681549 253.341476,437.275879 255.185471,436.363861 
	C256.927032,435.502411 258.405304,434.108643 260.327148,432.726013 
	C283.105225,428.153076 304.512787,420.919342 324.391510,409.457306 
	C324.391510,409.457306 324.249420,409.259247 324.684509,409.269623 
	C333.476288,403.927124 342.394897,399.266907 350.053497,393.053650 
	C360.662109,384.447144 370.323273,374.672760 380.390137,365.398499 
	C380.265900,365.266663 380.141632,365.134857 380.522095,365.091675 
	C383.169281,362.625824 385.311737,360.071411 387.454193,357.516998 
	C387.454193,357.516998 387.500854,357.491547 387.787933,357.298279 
	C389.490295,355.168793 390.905579,353.232513 392.320862,351.296265 
	C392.320862,351.296265 392.015167,351.045898 392.458130,351.033386 
	C393.988068,349.385712 395.075043,347.750549 396.161987,346.115356 
	C396.161987,346.115356 396.048401,346.085388 396.402283,345.990875 
	C398.219971,343.634094 399.683777,341.371826 401.147552,339.109558 
	C401.147552,339.109558 401.031525,339.048767 401.375244,338.933685 
	C403.297668,336.196960 404.876404,333.575348 406.483185,330.914001 
	C406.511261,330.874237 406.473175,330.784668 406.473175,330.784668 
	C406.473175,330.784668 406.690582,330.679565 406.947144,330.389679 
	C411.483612,321.857727 416.143188,313.787354 419.964783,305.337982 
	C428.019653,287.529053 433.027161,268.779999 436.062561,249.484116 
	C436.205261,248.576920 437.331726,247.824509 438.000000,247.000000 
z"/>
<path fill="#000101" opacity="1.000000" stroke="none" 
	d="
M189.531342,0.999996 
	C189.381516,1.665342 188.827515,2.835160 188.135300,2.923650 
	C154.318710,7.246604 123.459877,19.499643 95.760902,39.037979 
	C41.839764,77.072929 11.036550,129.186966 3.038485,194.738556 
	C2.830756,196.441086 2.118819,198.082123 1.321012,199.375916 
	C1.000000,133.074661 1.000000,67.149330 1.000000,1.000000 
	C63.687382,1.000000 126.375031,1.000000 189.531342,0.999996 
z"/>
<path fill="#000000" opacity="1.000000" stroke="none" 
	d="
M435.783875,187.963989 
	C435.815918,187.542084 435.847961,187.120163 435.840637,185.986099 
	C434.802979,180.832718 433.804688,176.391495 432.806396,171.950272 
	C432.823151,171.526047 432.839874,171.101822 432.653900,170.006653 
	C431.229523,164.870926 430.007874,160.406158 428.786255,155.941391 
	C428.700867,155.398773 428.615509,154.856140 428.291595,153.802261 
	C427.712158,152.484863 427.371216,151.678726 427.030273,150.872604 
	C427.030273,150.872604 427.000122,150.459854 426.971741,149.880707 
	C425.493896,145.425980 424.044403,141.550400 422.594879,137.674835 
	C422.594879,137.674835 422.613586,137.567276 422.443787,137.239685 
	C421.863831,136.224243 421.453674,135.536377 421.043488,134.848511 
	C415.506836,123.920906 410.668427,112.560104 404.234589,102.189049 
	C397.958984,92.073029 390.234711,82.822929 382.769562,73.494278 
	C379.925232,69.939896 376.028870,67.228569 372.618805,64.125488 
	C365.216095,57.389072 358.290039,50.020790 350.329987,44.024879 
	C325.434937,25.272720 297.814606,12.156006 267.104828,5.984079 
	C261.535980,4.864872 255.916367,3.999596 250.337769,2.925734 
	C249.612259,2.786077 248.992477,2.097016 248.661865,1.331220 
	C311.927002,1.000000 374.854034,1.000000 438.000000,1.000000 
	C438.000000,63.687389 438.000000,126.375038 437.793457,189.973419 
	C436.985931,189.910751 436.384918,188.937363 435.783875,187.963989 
z"/>
<path fill="#6FC7C0" opacity="1.000000" stroke="none" 
	d="
M438.000000,246.532074 
	C437.331726,247.824509 436.205261,248.576920 436.062561,249.484116 
	C433.027161,268.779999 428.019653,287.529053 419.964783,305.337982 
	C416.143188,313.787354 411.483612,321.857727 406.926422,330.270691 
	C405.613861,325.661499 409.586609,323.026001 411.236359,319.372162 
	C415.308624,310.352692 419.024902,301.160614 422.557190,291.913025 
	C425.320831,284.677673 428.368530,277.413666 429.912262,269.880096 
	C432.536591,257.072998 434.075317,244.043518 436.076294,231.108414 
	C436.202454,230.292938 436.381073,229.485565 436.895081,228.526978 
	C437.464020,228.633438 437.712433,228.840256 438.000000,229.000000 
	C438.000000,234.688034 438.000000,240.376083 438.000000,246.532074 
z"/>
<path fill="#000202" opacity="1.000000" stroke="none" 
	d="
M259.999359,432.949005 
	C258.405304,434.108643 256.927032,435.502411 255.185471,436.363861 
	C253.341476,437.275879 251.247040,437.681549 249.130997,438.654205 
	C240.645767,439.000000 232.291534,439.000000 223.603546,438.645599 
	C226.522705,437.571991 229.775604,436.852783 233.424133,436.046936 
	C235.686172,435.914032 237.552612,435.867767 239.907593,435.896729 
	C244.264725,435.370911 248.133286,434.769897 252.394714,434.053711 
	C255.191498,433.608673 257.595428,433.278839 259.999359,432.949005 
z"/>
<path fill="#6FC7C0" opacity="1.000000" stroke="none" 
	d="
M435.589539,188.321777 
	C436.384918,188.937363 436.985931,189.910751 437.793457,190.442078 
	C438.000000,195.688034 438.000000,201.376083 437.826355,207.700378 
	C437.768494,208.891098 437.884247,209.445557 438.000000,210.000000 
	C438.000000,210.750000 438.000000,211.500000 437.788666,212.868225 
	C437.718231,214.657639 437.859131,215.828812 438.000000,217.000000 
	C438.000000,217.000000 438.000000,217.500000 437.767517,218.069458 
	C437.347809,221.089233 437.160583,223.539536 436.973358,225.989838 
	C436.675964,224.897156 436.145050,223.810394 436.117188,222.710876 
	C435.829865,211.368301 435.623810,200.023636 435.589539,188.321777 
z"/>
<path fill="#051619" opacity="1.000000" stroke="none" 
	d="
M233.028503,436.133606 
	C229.775604,436.852783 226.522705,437.571991 223.134903,438.645599 
	C219.638718,439.000000 216.277420,439.000000 212.458069,439.000000 
	C210.513428,438.182648 209.026825,437.365295 207.720322,436.267639 
	C216.276443,436.036072 224.652466,436.084839 233.028503,436.133606 
z"/>
<path fill="#012226" opacity="1.000000" stroke="none" 
	d="
M1.000001,205.468643 
	C1.388491,205.479507 2.115422,205.959320 2.114971,206.438461 
	C2.107584,214.286285 2.008372,222.134018 1.464912,229.990891 
	C1.000000,221.979095 1.000000,213.958191 1.000001,205.468643 
z"/>
<path fill="#76BEBE" opacity="1.000000" stroke="none" 
	d="
M436.972443,226.322601 
	C437.160583,223.539536 437.347809,221.089233 437.767517,218.319458 
	C438.000000,221.361282 438.000000,224.722580 438.000000,228.541931 
	C437.712433,228.840256 437.464020,228.633438 437.110718,228.182571 
	C436.968231,227.542191 436.969879,227.098785 436.972443,226.322601 
z"/>
<path fill="#76BEBE" opacity="1.000000" stroke="none" 
	d="
M438.000000,216.600006 
	C437.859131,215.828812 437.718231,214.657639 437.788666,213.243225 
	C438.000000,214.066666 438.000000,215.133347 438.000000,216.600006 
z"/>
<path fill="#76BEBE" opacity="1.000000" stroke="none" 
	d="
M438.000000,209.666672 
	C437.884247,209.445557 437.768494,208.891098 437.826355,208.168335 
	C438.000000,208.444443 438.000000,208.888901 438.000000,209.666672 
z"/>
<path fill="#010101" opacity="1.000000" stroke="none" 
	d="
M52.101860,321.958984 
	C37.162598,298.760132 27.869177,273.338928 24.405071,246.110916 
	C16.018335,180.190903 34.967068,122.923981 82.341705,76.275871 
	C180.234756,-20.115885 345.825958,12.452344 401.007904,138.445328 
	C442.654877,233.534882 403.830811,344.572815 311.982574,393.060303 
	C234.163422,434.141693 137.873840,418.407410 76.980209,354.169342 
	C76.463402,353.439453 76.194839,353.240265 75.926285,353.041077 
	C75.926285,353.041077 75.996490,353.014374 75.994179,352.663879 
	C75.519539,348.612732 74.344597,345.627594 69.720505,346.154755 
	C69.197983,345.626038 68.675461,345.097321 68.011642,344.055054 
	C67.708717,343.226471 67.454483,343.033386 67.107643,342.962158 
	C67.107643,342.962158 67.037445,342.968750 67.054565,342.543213 
	C67.153580,339.418274 66.228577,337.674591 63.144550,337.980133 
	C63.144550,337.980133 62.850094,337.857635 62.757904,337.399963 
	C62.370064,336.671753 62.074417,336.401245 61.778778,336.130707 
	C61.778778,336.130707 61.861568,336.130768 61.793861,335.914429 
	C61.462543,335.475739 61.198933,335.253387 60.935318,335.031036 
	C60.596748,334.655487 60.258175,334.279938 59.893250,333.273621 
	C59.133995,331.867798 58.401093,331.092773 57.668190,330.317719 
	C57.668190,330.317719 57.954922,330.030487 57.871441,329.770935 
	C57.948921,325.445770 55.908463,323.037537 52.101860,321.958984 
M154.870148,197.499878 
	C154.748245,215.992905 154.594955,234.485809 154.513641,252.979019 
	C154.438904,269.975281 154.521286,286.972656 154.349747,303.967712 
	C154.310776,307.829346 155.517990,309.285431 159.512268,309.049316 
	C164.992142,308.725403 170.505341,308.964661 176.004257,308.963409 
	C179.570251,308.962585 183.136261,308.963226 187.022980,308.963226 
	C187.022980,306.168304 187.018173,304.181824 187.023727,302.195343 
	C187.075897,283.532715 187.257706,264.868927 187.086624,246.208344 
	C187.047546,241.944290 188.426895,240.827271 192.496658,240.966721 
	C200.818573,241.251846 209.160187,241.183701 217.487289,240.988571 
	C220.872528,240.909271 222.813644,241.834442 224.467941,245.081924 
	C234.440628,264.658661 244.855850,284.010712 254.756851,303.622772 
	C256.968811,308.004242 259.498352,309.575714 264.342255,309.355164 
	C272.988007,308.961487 281.666626,309.307343 290.331421,309.295929 
	C291.558685,309.294312 292.785583,309.022888 294.590149,308.807373 
	C281.460815,284.426758 268.629669,260.599823 255.906036,236.972580 
	C256.470886,236.260895 256.628693,235.937286 256.887146,235.762268 
	C257.435577,235.390930 258.014618,235.048157 258.618927,234.778351 
	C276.418152,226.830917 286.052063,212.681885 289.017700,193.856628 
	C291.312561,179.289398 289.421478,165.201218 281.288116,152.584152 
	C270.533356,135.900635 254.138046,128.724792 235.123276,128.034073 
	C209.992325,127.121178 184.817566,127.456589 159.664703,127.060539 
	C155.744232,126.998810 154.982697,128.450958 154.995712,132.014206 
	C155.074280,153.508972 154.936249,175.004532 154.870148,197.499878 
z"/>
<path fill="#71CBC6" opacity="1.000000" stroke="none" 
	d="
M233.424133,436.046936 
	C224.652466,436.084839 216.276443,436.036072 207.434723,436.065063 
	C205.098740,435.971771 203.228409,435.800720 200.587418,435.517639 
	C195.876740,434.992493 191.936722,434.579376 187.996719,434.166260 
	C187.327942,434.045319 186.659164,433.924347 185.338409,433.626221 
	C183.455826,433.319122 182.225250,433.189209 180.994659,433.059265 
	C180.430420,432.872223 179.866180,432.685150 178.761749,432.374817 
	C177.812622,432.238495 177.403717,432.225403 176.994797,432.212311 
	C176.279633,432.037048 175.564484,431.861786 174.262329,431.486938 
	C173.107574,431.250427 172.539825,431.213470 171.972061,431.176514 
	C161.227417,427.772125 150.482788,424.367737 139.479034,420.707184 
	C143.771805,421.715515 148.313889,423.016602 152.877884,424.235718 
	C159.248825,425.937531 165.547516,428.205505 172.033844,429.121399 
	C188.263596,431.413177 204.595825,434.711212 220.860428,434.569183 
	C239.614227,434.405304 258.448242,432.194946 276.737457,426.600677 
	C291.318756,422.140594 305.802155,417.691986 319.318756,410.509949 
	C320.597351,409.830536 322.177551,409.718781 324.004639,409.400391 
	C304.512787,420.919342 283.105225,428.153076 260.327148,432.726013 
	C257.595428,433.278839 255.191498,433.608673 251.973923,434.006500 
	C247.246536,434.656830 243.332794,435.239197 239.419037,435.821533 
	C237.552612,435.867767 235.686172,435.914032 233.424133,436.046936 
z"/>
<path fill="#71CBC6" opacity="1.000000" stroke="none" 
	d="
M380.018219,365.357544 
	C370.323273,374.672760 360.662109,384.447144 350.053497,393.053650 
	C342.394897,399.266907 333.476288,403.927124 324.774902,409.351379 
	C325.093628,408.231262 325.458130,406.441437 326.465393,405.938141 
	C341.154907,398.598175 353.845001,388.517303 365.827271,377.471680 
	C369.081390,374.471924 371.926147,371.030670 375.143158,367.986877 
	C376.379517,366.817047 378.130035,366.190613 380.018219,365.357544 
z"/>
<path fill="#71CBC6" opacity="1.000000" stroke="none" 
	d="
M114.913513,408.688507 
	C107.733978,404.572632 100.503845,400.112579 93.108734,395.364807 
	C95.837639,396.419891 98.904991,397.486084 101.586655,399.167389 
	C106.140068,402.022217 110.450417,405.264740 114.913513,408.688507 
z"/>
<path fill="#71CBC6" opacity="1.000000" stroke="none" 
	d="
M138.757294,420.034088 
	C131.234955,416.838226 123.527885,413.339417 115.604752,409.563232 
	C119.915504,411.098999 124.496902,412.789154 128.951050,414.766022 
	C132.244125,416.227539 135.371414,418.062531 138.757294,420.034088 
z"/>
<path fill="#6FC7C0" opacity="1.000000" stroke="none" 
	d="
M432.620880,172.284882 
	C433.804688,176.391495 434.802979,180.832718 435.750427,185.680237 
	C434.611511,181.597519 433.523438,177.108505 432.620880,172.284882 
z"/>
<path fill="#6FC7C0" opacity="1.000000" stroke="none" 
	d="
M428.608948,156.266251 
	C430.007874,160.406158 431.229523,164.870926 432.526184,169.713058 
	C431.211365,165.590652 429.821503,161.090881 428.608948,156.266251 
z"/>
<path fill="#6FC7C0" opacity="1.000000" stroke="none" 
	d="
M422.473022,138.088928 
	C424.044403,141.550400 425.493896,145.425980 426.902161,149.685837 
	C421.775482,147.611008 423.143829,142.635757 422.473022,138.088928 
z"/>
<path fill="#71CBC6" opacity="1.000000" stroke="none" 
	d="
M387.104767,357.467041 
	C385.311737,360.071411 383.169281,362.625824 380.711853,365.286499 
	C379.879120,360.631744 383.757385,359.375336 387.104767,357.467041 
z"/>
<path fill="#061F20" opacity="1.000000" stroke="none" 
	d="
M52.148743,322.299377 
	C55.908463,323.037537 57.948921,325.445770 57.721329,329.907593 
	C55.835003,327.749115 54.015312,325.194458 52.148743,322.299377 
z"/>
<path fill="#081F1B" opacity="1.000000" stroke="none" 
	d="
M69.846222,346.468201 
	C74.344597,345.627594 75.519539,348.612732 75.969513,352.692200 
	C73.955421,350.974579 71.963676,348.878143 69.846222,346.468201 
z"/>
<path fill="#71C5C2" opacity="1.000000" stroke="none" 
	d="
M406.455139,330.953735 
	C404.876404,333.575348 403.297668,336.196960 401.420654,338.980865 
	C402.288574,336.579681 403.454773,334.016266 405.206421,331.213715 
	C406.012970,330.967621 406.234039,330.960663 406.455139,330.953735 
z"/>
<path fill="#71C5C2" opacity="1.000000" stroke="none" 
	d="
M400.792877,339.148865 
	C399.683777,341.371826 398.219971,343.634094 396.446838,346.029114 
	C397.571075,343.837341 399.004639,341.512787 400.792877,339.148865 
z"/>
<path fill="#71CBC6" opacity="1.000000" stroke="none" 
	d="
M391.969116,351.308044 
	C390.905579,353.232513 389.490295,355.168793 387.799438,357.274353 
	C388.888397,355.402374 390.252899,353.361115 391.969116,351.308044 
z"/>
<path fill="#71CBC6" opacity="1.000000" stroke="none" 
	d="
M395.783051,346.117065 
	C395.075043,347.750549 393.988068,349.385712 392.604736,351.166077 
	C393.340302,349.580414 394.372192,347.849579 395.783051,346.117065 
z"/>
<path fill="#061F20" opacity="1.000000" stroke="none" 
	d="
M63.236694,338.288635 
	C66.228577,337.674591 67.153580,339.418274 67.059464,342.508301 
	C65.807777,341.464996 64.568306,340.031067 63.236694,338.288635 
z"/>
<path fill="#061F20" opacity="1.000000" stroke="none" 
	d="
M57.710190,330.639404 
	C58.401093,331.092773 59.133995,331.867798 59.832649,333.019104 
	C59.116329,332.583893 58.434261,331.772491 57.710190,330.639404 
z"/>
<path fill="#6FC7C0" opacity="1.000000" stroke="none" 
	d="
M427.020111,151.216644 
	C427.371216,151.678726 427.712158,152.484863 428.061340,153.639389 
	C427.716370,153.178757 427.363159,152.369720 427.020111,151.216644 
z"/>
<path fill="#6FC7C0" opacity="1.000000" stroke="none" 
	d="
M421.054199,135.189941 
	C421.453674,135.536377 421.863831,136.224243 422.399994,137.207092 
	C422.038971,136.845200 421.551910,136.188278 421.054199,135.189941 
z"/>
<path fill="#71CBC6" opacity="1.000000" stroke="none" 
	d="
M92.792343,394.847687 
	C92.608932,394.923126 92.292572,394.779419 91.880577,394.379578 
	C92.076424,394.291840 92.367905,394.460205 92.792343,394.847687 
z"/>
<path fill="#081F1B" opacity="1.000000" stroke="none" 
	d="
M75.971718,353.315125 
	C76.194839,353.240265 76.463402,353.439453 76.836807,353.869751 
	C76.633492,353.930328 76.325325,353.759735 75.971718,353.315125 
z"/>
<path fill="#061F20" opacity="1.000000" stroke="none" 
	d="
M67.142105,343.214355 
	C67.454483,343.033386 67.708717,343.226471 67.929176,343.780640 
	C67.717529,343.835419 67.447052,343.651001 67.142105,343.214355 
z"/>
<path fill="#061F20" opacity="1.000000" stroke="none" 
	d="
M61.835602,336.431030 
	C62.074417,336.401245 62.370064,336.671753 62.714260,337.246582 
	C62.472683,337.277710 62.182560,337.004547 61.835602,336.431030 
z"/>
<path fill="#061F20" opacity="1.000000" stroke="none" 
	d="
M60.975487,335.302490 
	C61.198933,335.253387 61.462543,335.475739 61.787251,335.955292 
	C61.570778,335.999664 61.293217,335.786804 60.975487,335.302490 
z"/>
<path fill="#6FC7C0" opacity="1.000000" stroke="none" 
	d="
M406.483215,330.914001 
	C406.234039,330.960663 406.012970,330.967621 405.461792,330.980133 
	C405.385040,330.768555 405.678375,330.653320 406.242493,330.712341 
	C406.473175,330.784668 406.511261,330.874237 406.483215,330.914001 
z"/>
<path fill="#051619" opacity="1.000000" stroke="none" 
	d="
M188.279999,434.417908 
	C191.936722,434.579376 195.876740,434.992493 200.198517,435.614014 
	C196.574631,435.438171 192.568954,435.053864 188.279999,434.417908 
z"/>
<path fill="#051619" opacity="1.000000" stroke="none" 
	d="
M181.289948,433.294952 
	C182.225250,433.189209 183.455826,433.319122 184.998627,433.657471 
	C184.068970,433.754181 182.827103,433.642426 181.289948,433.294952 
z"/>
<path fill="#051619" opacity="1.000000" stroke="none" 
	d="
M172.047913,431.433289 
	C172.539825,431.213470 173.107574,431.250427 173.893433,431.476318 
	C173.448929,431.673553 172.786346,431.681793 172.047913,431.433289 
z"/>
<path fill="#051619" opacity="1.000000" stroke="none" 
	d="
M177.252350,432.378693 
	C177.403717,432.225403 177.812622,432.238495 178.470337,432.441986 
	C178.316055,432.603302 177.912979,432.574188 177.252350,432.378693 
z"/>
<path fill="#051619" opacity="1.000000" stroke="none" 
	d="
M239.907593,435.896729 
	C243.332794,435.239197 247.246536,434.656830 251.581070,434.121704 
	C248.133286,434.769897 244.264725,435.370911 239.907593,435.896729 
z"/>
<path fill="#63E1DD" opacity="1.000000" stroke="none" 
	d="
M154.870422,196.999847 
	C154.936249,175.004532 155.074280,153.508972 154.995712,132.014206 
	C154.982697,128.450958 155.744232,126.998810 159.664703,127.060539 
	C184.817566,127.456589 209.992325,127.121178 235.123276,128.034073 
	C254.138046,128.724792 270.533356,135.900635 281.288116,152.584152 
	C289.421478,165.201218 291.312561,179.289398 289.017700,193.856628 
	C286.052063,212.681885 276.418152,226.830917 258.618927,234.778351 
	C258.014618,235.048157 257.435577,235.390930 256.887146,235.762268 
	C256.628693,235.937286 256.470886,236.260895 255.906036,236.972580 
	C268.629669,260.599823 281.460815,284.426758 294.590149,308.807373 
	C292.785583,309.022888 291.558685,309.294312 290.331421,309.295929 
	C281.666626,309.307343 272.988007,308.961487 264.342255,309.355164 
	C259.498352,309.575714 256.968811,308.004242 254.756851,303.622772 
	C244.855850,284.010712 234.440628,264.658661 224.467941,245.081924 
	C222.813644,241.834442 220.872528,240.909271 217.487289,240.988571 
	C209.160187,241.183701 200.818573,241.251846 192.496658,240.966721 
	C188.426895,240.827271 187.047546,241.944290 187.086624,246.208344 
	C187.257706,264.868927 187.075897,283.532715 187.023727,302.195343 
	C187.018173,304.181824 187.022980,306.168304 187.022980,308.963226 
	C183.136261,308.963226 179.570251,308.962585 176.004257,308.963409 
	C170.505341,308.964661 164.992142,308.725403 159.512268,309.049316 
	C155.517990,309.285431 154.310776,307.829346 154.349747,303.967712 
	C154.521286,286.972656 154.438904,269.975281 154.513641,252.979019 
	C154.594955,234.485809 154.748245,215.992905 154.870422,196.999847 
M256.393646,181.974991 
	C254.725296,164.941330 244.137817,154.624969 227.056931,154.008072 
	C214.905167,153.569229 202.731598,153.724091 190.567520,153.656525 
	C189.644058,153.651398 188.718674,153.986435 187.535843,154.212784 
	C187.535843,174.558517 187.535843,194.646805 187.535843,214.824493 
	C202.415680,214.824493 217.019180,214.910324 231.619659,214.739594 
	C234.037613,214.711334 236.550522,213.825241 238.835587,212.887375 
	C252.304138,207.359375 256.763672,196.464661 256.393646,181.974991 
z"/>
<path fill="#020404" opacity="1.000000" stroke="none" 
	d="
M256.424438,182.395966 
	C256.763672,196.464661 252.304138,207.359375 238.835587,212.887375 
	C236.550522,213.825241 234.037613,214.711334 231.619659,214.739594 
	C217.019180,214.910324 202.415680,214.824493 187.535843,214.824493 
	C187.535843,194.646805 187.535843,174.558517 187.535843,154.212784 
	C188.718674,153.986435 189.644058,153.651398 190.567520,153.656525 
	C202.731598,153.724091 214.905167,153.569229 227.056931,154.008072 
	C244.137817,154.624969 254.725296,164.941330 256.424438,182.395966 
z"/>
</svg>